<?xml version="1.0" standalone="no"?>
<!DOCTYPE svg PUBLIC "-//W3C//DTD SVG 20010904//EN"
 "http://www.w3.org/TR/2001/REC-SVG-20010904/DTD/svg10.dtd">
<svg version="1.0" xmlns="http://www.w3.org/2000/svg"
 width="450.000000pt" height="157.000000pt" viewBox="0 0 450.000000 157.000000"
 preserveAspectRatio="xMidYMid meet">
<metadata>
Created by potrace 1.10, written by Peter Selinger 2001-2011
</metadata>
<g transform="translate(0.000000,157.000000) scale(0.100000,-0.100000)"
fill="#000000" stroke="none">
<path d="M2176 1389 c-49 -5 -90 -10 -92 -12 -2 -1 0 -8 4 -14 5 -9 19 -9 47
-3 59 14 212 12 277 -4 45 -10 58 -11 62 -1 3 9 -15 16 -57 24 -102 17 -148
19 -241 10z"/>
<path d="M2133 1309 c-36 -7 -50 -14 -47 -23 4 -10 14 -11 42 -5 53 13 217 12
281 0 73 -15 91 3 19 19 -74 16 -233 21 -295 9z"/>
<path d="M1718 1213 c-1 -5 -21 -21 -43 -37 -22 -16 -69 -55 -105 -87 -36 -31
-74 -58 -85 -60 -29 -6 -33 -49 -6 -56 23 -6 28 -29 9 -36 -10 -4 -10 -7 0
-18 10 -10 12 -10 12 0 0 8 11 3 29 -12 16 -13 50 -29 75 -36 35 -9 46 -16 46
-31 0 -20 -27 -40 -55 -40 -9 0 -27 11 -41 25 -24 24 -64 27 -64 5 0 -41 48
-70 115 -70 59 0 95 32 95 85 0 46 -25 70 -95 90 -61 18 -66 32 -20 54 26 13
30 12 46 -8 22 -27 71 -30 62 -3 -3 9 -17 29 -30 43 l-23 26 50 34 c27 19 50
40 50 47 0 19 -6 16 -75 -38 -35 -27 -72 -50 -80 -50 -9 0 -25 -5 -36 -10 -10
-6 -19 -9 -19 -7 0 6 151 131 183 151 15 10 27 25 27 32 0 15 -16 19 -22 7z
m-160 -209 c-33 -14 -36 -18 -28 -40 6 -15 6 -24 0 -24 -6 0 -10 9 -10 20 0
11 -4 20 -9 20 -7 0 -8 29 -2 36 1 0 20 1 44 2 l42 1 -37 -15z m76 -102 c3 -5
-1 -9 -9 -9 -8 0 -12 4 -9 9 3 4 7 8 9 8 2 0 6 -4 9 -8z m-93 -99 c13 -16 12
-17 -3 -4 -17 13 -22 21 -14 21 2 0 10 -8 17 -17z"/>
<path d="M2814 1189 c-5 -8 2 -19 16 -28 36 -24 151 -123 147 -127 -10 -10
-72 19 -111 51 -28 22 -47 32 -51 25 -7 -11 28 -45 58 -55 29 -10 19 -25 -13
-18 l-30 6 0 -139 0 -139 99 0 c95 0 100 1 104 23 4 21 2 22 -74 22 l-79 0 0
35 0 35 71 0 c66 0 71 1 66 20 -3 13 0 20 10 20 8 0 13 4 11 8 -7 19 -87 82
-104 83 -11 1 -1 5 21 9 29 6 45 4 60 -7 19 -14 19 -15 -7 -9 -36 8 -36 -5 -1
-21 48 -23 71 -9 51 30 -5 9 -15 17 -24 17 -8 0 -33 17 -57 38 -111 100 -155
133 -163 121z m66 -173 c0 -2 -6 -16 -14 -31 l-15 -28 1 31 c1 20 6 32 15 32
7 0 13 -2 13 -4z m100 -56 l35 -29 -67 -1 -68 0 0 30 c0 27 3 30 33 30 21 0
44 -11 67 -30z m-112 -22 c-2 -7 7 -17 19 -22 l21 -10 -21 -11 c-14 -7 -21
-19 -20 -34 2 -12 -1 -20 -7 -16 -12 7 -11 105 1 105 5 0 8 -5 7 -12z m2 -140
c0 -19 -16 -5 -17 14 -2 18 0 20 7 8 5 -8 10 -18 10 -22z"/>
<path d="M1256 910 c-25 -73 -46 -135 -46 -138 0 -4 11 -7 25 -7 20 0 28 7 36
33 11 33 11 33 67 30 51 -3 56 -5 66 -33 8 -23 18 -30 39 -32 15 -1 27 -1 27
0 0 2 -22 63 -49 137 l-49 135 -35 3 -34 3 -47 -131z m103 17 l18 -57 -43 0
c-24 0 -44 -3 -44 -8 0 -4 -9 -13 -21 -20 -18 -12 -19 -11 -10 6 6 11 17 22
25 25 8 3 22 31 32 61 10 31 19 54 21 53 1 -2 11 -29 22 -60z m54 -78 c4 -16
3 -18 -9 -8 -16 13 -19 29 -5 29 5 0 11 -9 14 -21z"/>
<path d="M1734 1015 c1 -23 5 -25 44 -25 l43 0 -2 -112 -1 -111 26 -3 27 -3
-3 115 -3 114 43 0 c38 0 42 2 42 25 l0 25 -109 0 -109 0 2 -25z m118 -17 c-9
-9 -15 -9 -24 0 -9 9 -7 12 12 12 19 0 21 -3 12 -12z"/>
<path d="M1977 904 l2 -137 26 -3 c24 -3 25 -1 25 57 0 50 3 59 18 59 24 0 33
-9 69 -64 25 -39 37 -49 62 -51 17 -2 31 -1 31 2 0 13 -55 95 -72 107 -20 14
-20 14 1 21 34 10 51 34 51 69 0 54 -28 70 -129 74 l-86 4 2 -138z m157 71
c12 -32 -5 -45 -55 -45 -48 0 -49 1 -49 30 0 29 1 30 49 30 34 0 51 -4 55 -15z
m-114 -69 c0 -8 -4 -18 -10 -21 -5 -3 -10 3 -10 14 0 12 5 21 10 21 6 0 10 -6
10 -14z m85 -6 c-3 -5 -12 -10 -18 -10 -7 0 -6 4 3 10 19 12 23 12 15 0z"/>
<path d="M2270 912 c-25 -70 -46 -132 -48 -137 -1 -6 10 -10 25 -9 22 0 30 7
37 32 9 31 10 32 66 32 55 0 57 -1 66 -31 7 -25 15 -32 37 -35 18 -2 27 2 25
9 -2 7 -23 69 -48 139 l-45 128 -35 0 -35 0 -45 -128z m97 36 c6 -24 14 -51
18 -60 6 -16 1 -18 -35 -18 -36 0 -41 3 -35 18 3 9 11 36 18 60 6 23 14 42 17
42 4 0 11 -19 17 -42z m56 -87 c3 -14 0 -17 -14 -14 -15 4 -17 8 -8 19 15 18
16 18 22 -5z m-123 0 c0 -5 -7 -11 -15 -15 -15 -5 -20 5 -8 17 9 10 23 9 23
-2z"/>
<path d="M2593 1015 c0 -23 3 -24 63 -27 l64 -3 -70 -85 c-44 -54 -70 -94 -70
-110 l0 -25 107 2 c101 1 108 3 111 22 3 20 -1 21 -72 21 -42 0 -76 3 -76 6 0
3 32 43 70 88 48 57 70 92 70 110 l0 26 -99 0 c-98 0 -98 0 -98 -25z m74 -1
c-3 -3 -12 -4 -19 -1 -8 3 -5 6 6 6 11 1 17 -2 13 -5z m100 -7 c1 -2 -7 -18
-18 -36 -11 -18 -23 -31 -26 -27 -3 3 0 12 6 20 15 18 7 34 -23 47 -16 6 -11
8 18 4 22 -3 41 -7 43 -8z m-77 -107 c0 -5 -5 -10 -11 -10 -5 0 -7 5 -4 10 3
6 8 10 11 10 2 0 4 -4 4 -10z m-52 -92 c20 -20 14 -28 -13 -16 -13 6 -22 15
-19 19 7 12 18 11 32 -3z"/>
<path d="M3080 910 c0 -71 0 -133 0 -137 0 -3 11 -7 25 -9 25 -3 25 -2 25 74
0 47 -6 88 -14 104 -18 33 -24 64 -13 66 18 4 27 1 27 -10 0 -6 8 -20 17 -30
14 -15 14 -19 3 -16 -22 5 -14 -17 37 -107 40 -70 49 -80 74 -81 l29 -1 0 138
0 139 -25 0 c-25 0 -25 -1 -26 -92 0 -64 -3 -88 -10 -78 -5 8 -30 50 -55 93
-37 62 -51 77 -70 77 l-24 0 0 -130z m187 58 c-3 -8 -6 -5 -6 6 -1 11 2 17 5
13 3 -3 4 -12 1 -19z m-160 -65 c-3 -10 -5 -2 -5 17 0 19 2 27 5 18 2 -10 2
-26 0 -35z m162 -43 c-2 -88 -16 -89 -65 -5 l-17 30 21 -19 c29 -25 52 -14 52
24 0 16 2 30 5 30 2 0 4 -27 4 -60z m-162 -37 c-3 -10 -5 -2 -5 17 0 19 2 27
5 18 2 -10 2 -26 0 -35z"/>
<path d="M1490 680 c0 -7 265 -10 775 -10 510 0 775 3 775 10 0 7 -265 10
-775 10 -510 0 -775 -3 -775 -10z"/>
<path d="M1993 643 c153 -2 401 -2 550 0 150 1 25 2 -278 2 -302 0 -425 -1
-272 -2z"/>
<path d="M476 513 c4 -15 10 -37 15 -48 6 -18 9 -16 20 15 l13 35 8 -34 c11
-42 27 -30 33 25 l5 39 -13 -35 -14 -34 -6 32 c-7 35 -27 35 -27 1 0 -10 -4
-19 -10 -19 -5 0 -10 9 -10 19 0 11 -5 23 -10 26 -7 4 -8 -3 -4 -22z"/>
<path d="M587 533 c-4 -3 -7 -24 -7 -45 0 -36 2 -38 30 -38 17 0 30 5 30 10 0
6 -11 10 -25 10 -14 0 -25 5 -25 10 0 6 12 10 26 10 15 0 23 4 19 11 -4 6 -13
8 -21 5 -7 -3 -16 -1 -19 4 -4 6 5 10 19 10 14 0 26 5 26 10 0 11 -43 14 -53
3z"/>
<path d="M654 527 c-12 -31 0 -72 22 -75 30 -4 45 18 35 54 -8 32 -47 46 -57
21z m41 -17 c-3 -5 -10 -10 -16 -10 -5 0 -9 5 -9 10 0 6 7 10 16 10 8 0 12 -4
9 -10z m5 -30 c0 -5 -7 -10 -15 -10 -8 0 -15 5 -15 10 0 6 7 10 15 10 8 0 15
-4 15 -10z"/>
<path d="M757 533 c-14 -14 -7 -74 9 -80 37 -14 70 41 44 73 -13 15 -42 19
-53 7z m48 -38 c0 -11 -8 -21 -17 -23 -14 -3 -18 3 -18 23 0 20 4 26 18 23 9
-2 17 -12 17 -23z"/>
<path d="M837 533 c-2 -5 -3 -24 -3 -43 1 -32 4 -35 34 -38 18 -2 32 1 32 7 0
6 -11 11 -25 11 -14 0 -25 5 -25 10 0 6 9 10 20 10 11 0 20 5 20 11 0 6 -9 8
-20 4 -11 -4 -20 -2 -20 4 0 6 9 11 20 11 11 0 20 5 20 10 0 12 -47 14 -53 3z"/>
<path d="M900 531 c0 -21 32 -83 39 -75 12 13 32 76 27 82 -3 2 -11 -11 -19
-29 l-13 -34 -12 33 c-10 30 -22 43 -22 23z"/>
<path d="M980 495 c0 -43 1 -45 30 -45 17 0 30 5 30 10 0 6 -11 10 -25 10 -14
0 -25 5 -25 10 0 6 12 10 26 10 15 0 23 4 19 11 -4 6 -13 8 -21 5 -7 -3 -16
-1 -19 4 -4 6 5 10 19 10 14 0 26 5 26 10 0 6 -13 10 -30 10 -29 0 -30 -2 -30
-45z"/>
<path d="M1052 498 c2 -36 7 -44 26 -46 12 -2 22 1 22 7 0 6 -8 11 -19 11 -15
0 -18 6 -15 30 2 16 -1 32 -7 36 -7 4 -9 -9 -7 -38z"/>
<path d="M1116 518 c-26 -36 16 -86 49 -58 28 23 13 80 -21 80 -7 0 -20 -10
-28 -22z m52 -21 c4 -20 -25 -34 -40 -19 -15 15 -1 44 19 40 10 -2 19 -11 21
-21z"/>
<path d="M1198 499 c-2 -22 0 -43 4 -45 4 -3 8 5 8 16 0 15 5 20 14 17 22 -9
41 19 26 38 -25 30 -48 18 -52 -26z m42 11 c0 -5 -7 -10 -15 -10 -8 0 -15 5
-15 10 0 6 7 10 15 10 8 0 15 -4 15 -10z"/>
<path d="M1271 495 l1 -50 8 40 c5 22 4 44 -1 50 -5 5 -9 -11 -8 -40z"/>
<path d="M1318 509 c-8 -23 -13 -27 -19 -17 -10 15 -12 -2 -3 -26 8 -21 24
-10 25 17 1 17 3 15 9 -8 7 -27 8 -25 9 18 1 54 -6 60 -21 16z"/>
<path d="M1360 495 c0 -43 1 -45 30 -45 17 0 30 5 30 10 0 6 -11 10 -25 10
-14 0 -25 5 -25 10 0 6 9 10 20 10 11 0 20 5 20 11 0 6 -9 8 -20 4 -11 -4 -20
-2 -20 4 0 6 11 11 25 11 14 0 25 5 25 10 0 6 -13 10 -30 10 -29 0 -30 -2 -30
-45z"/>
<path d="M1479 511 l0 -26 -16 23 c-23 33 -33 27 -32 -20 l2 -43 6 35 6 35 19
-32 c24 -38 36 -34 36 12 0 47 28 36 33 -13 l4 -37 1 38 c1 25 7 37 17 37 8 0
15 5 15 10 0 7 -19 10 -45 9 -41 -3 -45 -5 -46 -28z"/>
<path d="M1670 495 c0 -40 2 -45 23 -45 29 0 47 18 47 45 0 27 -18 45 -47 45
-21 0 -23 -5 -23 -45z m50 0 c0 -18 -5 -25 -20 -25 -15 0 -20 7 -20 25 0 18 5
25 20 25 15 0 20 -7 20 -25z"/>
<path d="M1750 495 c0 -27 3 -45 7 -42 3 4 6 23 6 42 0 19 -3 38 -6 42 -4 3
-7 -15 -7 -42z"/>
<path d="M1792 528 c-30 -30 -2 -86 38 -73 28 9 27 45 -2 45 -21 0 -21 0 -2
-15 18 -15 18 -15 -6 -13 -17 2 -25 9 -25 23 0 16 6 20 28 18 29 -2 37 11 11
21 -22 8 -28 8 -42 -6z"/>
<path d="M1866 532 c-8 -13 -4 -72 6 -78 4 -3 8 15 8 40 0 45 -4 54 -14 38z"/>
<path d="M1890 530 c0 -5 5 -10 10 -10 6 0 10 -13 10 -29 0 -17 5 -33 10 -36
6 -4 10 8 10 29 0 20 5 36 10 36 6 0 10 5 10 10 0 6 -13 10 -30 10 -16 0 -30
-4 -30 -10z"/>
<path d="M1962 502 c-11 -23 -17 -44 -12 -47 4 -3 10 2 14 10 7 20 26 19 43
-2 13 -16 13 -16 7 7 -3 14 -12 36 -19 49 l-13 25 -20 -42z m28 -2 c0 -5 -5
-10 -11 -10 -5 0 -7 5 -4 10 3 6 8 10 11 10 2 0 4 -4 4 -10z"/>
<path d="M2027 533 c-4 -7 -5 -28 -1 -48 5 -28 11 -35 30 -35 13 0 24 5 24 10
0 6 -9 10 -19 10 -16 0 -20 8 -23 38 -2 23 -6 32 -11 25z"/>
<path d="M2110 496 c0 -29 4 -45 10 -41 6 3 8 18 5 33 l-5 27 12 -27 c13 -30
28 -37 28 -14 0 8 5 18 12 22 7 5 9 0 6 -14 -7 -24 20 -40 28 -17 8 19 44 20
44 1 0 -9 9 -14 20 -13 12 1 20 8 20 19 0 24 14 23 32 -4 13 -20 14 -19 14 23
-1 42 -2 44 -31 44 -28 0 -30 -2 -27 -32 3 -43 -13 -42 -28 2 -15 45 -25 44
-41 -2 l-14 -38 -5 40 -6 40 -14 -27 c-14 -30 -30 -37 -30 -14 0 7 -7 19 -15
26 -13 11 -15 6 -15 -34z m215 14 c-3 -5 -13 -10 -21 -10 -8 0 -14 5 -14 10 0
6 9 10 21 10 11 0 17 -4 14 -10z m-85 -10 c0 -5 -4 -10 -10 -10 -5 0 -10 5
-10 10 0 6 5 10 10 10 6 0 10 -4 10 -10z"/>
<path d="M2350 501 c0 -39 20 -61 20 -23 1 15 3 15 18 -3 18 -22 102 -35 102
-15 0 5 -11 10 -25 10 -14 0 -25 5 -25 10 0 6 9 10 20 10 11 0 20 5 20 11 0 6
-9 8 -20 4 -11 -4 -20 -2 -20 4 0 6 9 11 20 11 11 0 20 5 20 11 0 6 -12 9 -27
7 -23 -2 -29 -9 -33 -37 -4 -31 -6 -33 -19 -18 -11 14 -11 20 -1 32 7 9 10 18
7 21 -3 3 -12 -3 -19 -15 -15 -24 -33 -29 -25 -6 4 8 2 17 -3 20 -6 4 -10 -11
-10 -34z"/>
<path d="M2490 530 c0 -5 7 -10 16 -10 13 0 15 -7 11 -30 -4 -16 -2 -32 3 -35
6 -4 10 9 10 29 0 20 5 36 10 36 6 0 10 5 10 10 0 6 -13 10 -30 10 -16 0 -30
-4 -30 -10z"/>
<path d="M2567 533 c-11 -10 -8 -83 3 -83 6 0 10 20 10 45 0 46 -2 50 -13 38z"/>
<path d="M2597 533 c-12 -11 -8 -85 4 -77 6 3 8 18 5 33 l-7 26 21 -25 c11
-14 20 -29 20 -33 0 -5 5 -5 10 -2 6 3 10 24 10 46 0 21 -4 39 -10 39 -5 0
-10 -12 -10 -27 l0 -28 -18 28 c-10 15 -22 24 -25 20z"/>
<path d="M2682 528 c-29 -29 -4 -84 35 -76 23 4 31 48 9 48 -19 0 -21 -16 -3
-24 6 -3 1 -4 -13 -3 -38 3 -35 42 3 42 15 -1 26 4 24 10 -5 15 -40 18 -55 3z"/>
<path d="M2854 527 c-11 -30 0 -72 20 -76 27 -5 46 24 37 57 -8 30 -47 43 -57
19z m41 -17 c-3 -5 -10 -10 -16 -10 -5 0 -9 5 -9 10 0 6 7 10 16 10 8 0 12 -4
9 -10z m5 -30 c0 -5 -7 -10 -15 -10 -8 0 -15 5 -15 10 0 6 7 10 15 10 8 0 15
-4 15 -10z"/>
<path d="M2934 500 c1 -41 3 -45 26 -45 23 0 25 4 27 45 1 41 1 42 -5 10 -10
-51 -39 -53 -45 -3 -4 34 -4 33 -3 -7z"/>
<path d="M3013 529 c-15 -15 1 -39 23 -39 8 0 14 -5 14 -11 0 -7 -10 -9 -27
-4 -23 5 -25 4 -14 -9 16 -19 33 -20 48 -5 16 16 5 39 -18 39 -10 0 -19 5 -19
11 0 7 9 9 21 6 13 -3 19 -1 16 6 -5 17 -30 20 -44 6z"/>
<path d="M3083 495 c0 -27 2 -38 4 -22 2 15 2 37 0 50 -2 12 -4 0 -4 -28z"/>
<path d="M3111 495 l1 -50 8 40 c5 22 4 44 -1 50 -5 5 -9 -11 -8 -40z"/>
<path d="M3157 503 c-2 -21 0 -42 4 -47 5 -6 9 10 9 37 0 57 -6 61 -13 10z"/>
<path d="M3189 536 c-3 -3 -3 -23 -1 -45 4 -38 7 -41 33 -41 16 0 29 5 29 11
0 8 4 8 15 -1 17 -14 55 -4 55 16 0 8 -11 19 -25 24 -34 13 -32 24 3 15 25 -6
26 -5 10 11 -19 19 -48 13 -48 -11 0 -8 11 -20 25 -25 14 -5 25 -11 25 -13 0
-3 -25 -5 -55 -5 -30 0 -55 4 -55 9 0 5 9 9 20 9 11 0 20 5 20 11 0 6 -9 8
-20 4 -11 -4 -20 -2 -20 4 0 6 9 11 20 11 11 0 20 5 20 10 0 10 -42 14 -51 6z"/>
<path d="M3337 533 c-14 -14 -6 -34 18 -43 32 -12 32 -24 0 -17 -16 3 -24 0
-22 -7 2 -6 14 -11 28 -11 34 0 38 32 5 45 -33 12 -34 24 -1 16 27 -7 35 8 9
18 -20 8 -29 8 -37 -1z"/>
<path d="M3441 526 c-16 -19 -6 -36 20 -36 10 0 19 -5 19 -11 0 -7 -10 -9 -25
-7 -14 3 -25 2 -25 -3 0 -11 38 -22 50 -14 17 11 11 37 -10 42 -11 3 -20 10
-20 15 0 6 9 8 21 5 13 -3 19 -1 16 6 -6 18 -32 20 -46 3z"/>
<path d="M3509 519 c-13 -26 2 -69 25 -69 18 0 46 27 46 45 0 18 -28 45 -45
45 -8 0 -19 -10 -26 -21z m51 -24 c0 -18 -5 -25 -19 -25 -11 0 -21 6 -24 13
-7 20 4 37 24 37 14 0 19 -7 19 -25z"/>
<path d="M3592 498 c-2 -45 0 -48 23 -48 14 0 25 5 25 10 0 6 -9 10 -19 10
-15 0 -21 8 -24 38 -3 34 -4 33 -5 -10z"/>
<path d="M3652 506 c4 -48 32 -71 53 -43 7 10 11 27 8 37 -4 15 0 20 15 20 17
0 22 -8 25 -37 l4 -38 1 38 c1 20 7 37 12 37 6 0 10 5 10 10 0 6 -17 10 -40 8
-38 -2 -40 -3 -40 -36 0 -26 -4 -33 -17 -30 -12 2 -18 13 -18 30 -1 15 -4 31
-9 35 -4 4 -6 -10 -4 -31z"/>
<path d="M3797 533 c-11 -10 -8 -71 3 -78 6 -4 10 12 10 39 0 47 -2 51 -13 39z"/>
<path d="M3832 528 c-7 -7 -12 -21 -12 -33 0 -43 50 -62 70 -26 14 27 13 37
-6 55 -19 19 -36 20 -52 4z m48 -33 c0 -18 -5 -25 -19 -25 -11 0 -21 6 -24 13
-7 20 4 37 24 37 14 0 19 -7 19 -25z"/>
<path d="M3912 495 c1 -43 1 -46 7 -17 l6 34 20 -34 20 -33 5 40 c3 22 3 45 0
50 -3 6 -6 -3 -8 -19 l-4 -29 -23 29 -24 29 1 -50z"/>
<path d="M3994 525 c-7 -18 3 -35 22 -35 8 0 14 -5 14 -11 0 -7 -10 -9 -27 -4
-27 6 -27 6 -10 -12 13 -13 21 -15 34 -7 27 17 27 33 -1 44 -34 13 -33 24 1
15 23 -5 25 -4 14 9 -17 20 -40 21 -47 1z"/>
<path d="M3130 501 c0 -5 5 -13 10 -16 6 -3 10 -2 10 4 0 5 -4 13 -10 16 -5 3
-10 2 -10 -4z"/>
<path d="M1600 490 c0 -5 7 -10 15 -10 8 0 15 5 15 10 0 6 -7 10 -15 10 -8 0
-15 -4 -15 -10z"/>
<path d="M2785 490 c3 -5 10 -10 16 -10 5 0 9 5 9 10 0 6 -7 10 -16 10 -8 0
-12 -4 -9 -10z"/>
</g>
</svg>
